# xmcd
#
# Track frame offsets:
# 150
# 17099
# 36593
# 55057
# 76564
# 92073
# 106505
# 123078
# 142586
# 162774
# 181687
# 202136
# 219379
#
# Disc length: 3154 seconds
#
#
# Revision: 0
# Processed by: cddbd v1.4PL0 Copyright (c) Steve Scherf et al.
# Submitted via: FreeRIP 2.11 
#
DISCID=970c500d
DTITLE=MazHaR ALaNsoN - Piskopat
DYEAR=2001
DGENRE=Pop
TTITLE0=Dünya Bu Dünya
TTITLE1=Bir Bilsen
TTITLE2=Ah Bu Ben
TTITLE3=Yapma
TTITLE4=Hüznün kuþlari
TTITLE5=Yandim
TTITLE6=Benim Hala Umudum Var
TTITLE7=Yurt Disýndaydim
TTITLE8=Ne Dersiniz
TTITLE9=Hamak
TTITLE10=Hindistan
TTITLE11=Jazz (New York Sokaklari)
TTITLE12=Piskopat
EXTD=:)
EXTT0=
EXTT1=
EXTT2=
EXTT3=
EXTT4=
EXTT5=
EXTT6=
EXTT7=
EXTT8=
EXTT9=
EXTT10=
EXTT11=
EXTT12=
PLAYORDER=
